<svg width="29" height="26" viewBox="0 0 29 26" fill="none" xmlns="http://www.w3.org/2000/svg">
<path d="M0 25.7358C3.69011 21.4357 7.35087 17.1727 11.0336 12.88C7.35821 8.60209 3.70478 4.33904 0.0146724 0.0389235C0.124715 0.0240955 0.198077 0.0018535 0.271439 0.0018535C2.54566 0.0018535 4.81988 0.0018535 7.09411 0.0092675C7.2555 0.0092675 7.46092 0.0759935 7.56362 0.187203C11.1437 4.33904 14.7164 8.50571 18.2891 12.665C18.3478 12.7317 18.3919 12.7984 18.4652 12.88C17.6949 13.7845 16.9246 14.6816 16.1616 15.5712C13.3005 18.9001 10.4394 22.2364 7.5783 25.5579C7.49026 25.6617 7.32886 25.7655 7.19681 25.7655C4.83456 25.7803 2.47964 25.7803 0.117379 25.7729C0.0953706 25.7803 0.073362 25.7655 0 25.7358Z" fill="#223799"/>
<path d="M21.5758 12.88C17.9003 8.59468 14.2396 4.33904 10.5495 0.0315095C10.6668 0.0166815 10.7475 0.0018535 10.8209 0.0018535C13.0951 0.0018535 15.3693 -0.0055605 17.6436 0.0092675C17.8123 0.0092675 18.0324 0.0982355 18.1351 0.224273C21.7445 4.40577 25.3392 8.59468 28.934 12.7836C28.9486 12.7984 28.9633 12.8207 29 12.88C28.6992 13.2284 28.3984 13.5917 28.0903 13.955C24.767 17.8251 21.4437 21.7026 18.1131 25.5653C18.025 25.6691 17.8563 25.7655 17.7243 25.7655C15.3767 25.7803 13.0291 25.7729 10.6815 25.7729C10.6522 25.7729 10.6155 25.7581 10.5348 25.7358C14.2176 21.4505 17.8857 17.1801 21.5758 12.88Z" fill="#223799"/>
</svg>
